<?xml version="1.0" standalone="no"?><svg xmlns="http://www.w3.org/2000/svg" viewBox="0 0 1440 320"><path fill="#66b3ff" fill-opacity="0.6" d="M0,256L30,245.3C60,235,120,213,180,208C240,203,300,213,360,224C420,235,480,245,540,224C600,203,660,149,720,112C780,75,840,53,900,42.7C960,32,1020,32,1080,58.7C1140,85,1200,139,1260,160C1320,181,1380,171,1410,165.3L1440,160L1440,0L1410,0C1380,0,1320,0,1260,0C1200,0,1140,0,1080,0C1020,0,960,0,900,0C840,0,780,0,720,0C660,0,600,0,540,0C480,0,420,0,360,0C300,0,240,0,180,0C120,0,60,0,30,0L0,0Z"></path></svg>