<?xml version="1.0" standalone="no"?><svg xmlns="http://www.w3.org/2000/svg" viewBox="0 0 1440 320"><path fill="#66b3ff" fill-opacity="0.8" d="M0,192L30,181.3C60,171,120,149,180,170.7C240,192,300,256,360,272C420,288,480,256,540,245.3C600,235,660,245,720,234.7C780,224,840,192,900,170.7C960,149,1020,139,1080,133.3C1140,128,1200,128,1260,154.7C1320,181,1380,235,1410,261.3L1440,288L1440,0L1410,0C1380,0,1320,0,1260,0C1200,0,1140,0,1080,0C1020,0,960,0,900,0C840,0,780,0,720,0C660,0,600,0,540,0C480,0,420,0,360,0C300,0,240,0,180,0C120,0,60,0,30,0L0,0Z"></path></svg>